30 Minutes Or Less 2011 R5 READNFO XVID - ILLUMINATI

 
http://www.imdb.com/title/tt1622547/

Plot:
Two fledgling criminals kidnap a pizza delivery guy, strap a
bomb to his chest, and inform him that he has mere hours to rob
a bank or else...

Sources:
Video - Russians - Many Thanks
Audio -          - Many Thanks

Info:

Video:
Format                           : AVI
Format/Info                      : Audio Video Interleave
File size                        : 1.19 GiB
Duration                         : 1h 19mn
Overall bit rate                 : 2 137 Kbps
Writing application              : VirtualDubMod 1.5.4.1 (build 2178/release)
Writing library                  : VirtualDub build 30586/release

ID                               : 0
Format                           : MPEG-4 Visual
Format profile                   : Advanced Simple@L5
Format settings, BVOP            : 2
Format settings, QPel            : No
Format settings, GMC             : No warppoints
Format settings, Matrix          : Custom
Codec ID                         : XVID
Codec ID/Hint                    : XviD
Duration                         : 1h 19mn
Bit rate                         : 2 000 Kbps
Width                            : 720 pixels
Height                           : 304 pixels
Display aspect ratio             : 2.35:1
Frame rate                       : 25.000 fps
Color space                      : YUV
Chroma subsampling               : 4:2:0
Bit depth                        : 8 bits
Scan type                        : Progressive
Compression mode                 : Lossy
Bits/(Pixel*Frame)               : 0.365
Stream size                      : 1.11 GiB (94%)
Writing library                  : XviD 58

Audio:
ID                               : 1
Format                           : MPEG Audio
Format version                   : Version 1
Format profile                   : Layer 3
Mode                             : Joint stereo
Mode extension                   : MS Stereo
Codec ID                         : 55
Codec ID/Hint                    : MP3
Duration                         : 1h 19mn
Bit rate mode                    : Constant
Bit rate                         : 128 Kbps
Channel(s)                       : 2 channels
Sampling rate                    : 44.1 KHz
Compression mode                 : Lossy
Stream size                      : 73.0 MiB (6%)
Alignment                        : Split accross interleaves
Interleave, duration             : 40 ms (1.00 video frame)
Writing library                  : LAME3.98r
Encoding settings                : -m j -V 4 -q 2 -lowpass 17 -b 128


Release Notes:
Ok here we are with our R5 release of 30 minutes or less as the russian source
from the cam was missing we saved our audio for a day like this
we havnt cut out the 1st minute and we never needed to make 3 cuts where other
encoders had to racing to put this out first

audio is cam but is listenable cam and goes nice to the release hence the readnfo
check sample before d/l and await the re-encodes

Screens:
 
http://i.imgur.com/niNHz.png 
http://i.imgur.com/IiTgk.png 
http://i.imgur.com/il5JG.png 
http://i.imgur.com/8tEFy.png 
http://i.imgur.com/nwCh1.png